<svg viewBox="0 0 19 19" fill="none" xmlns="http://www.w3.org/2000/svg">
<path fill-rule="evenodd" clip-rule="evenodd" d="M14.8438 1.78125C12.3597 1.78125 6.64031 1.78125 4.15625 1.78125C3.68391 1.78125 3.23076 1.96897 2.89674 2.30299C2.56272 2.63701 2.375 3.09016 2.375 3.5625V15.4375C2.375 15.9098 2.56272 16.363 2.89674 16.697C3.23076 17.031 3.68391 17.2188 4.15625 17.2188H10.838C11.2668 17.2188 11.6812 17.0641 12.0051 16.7831C12.8537 16.047 15.0868 14.11 16.0109 13.3084C16.401 12.9702 16.625 12.4792 16.625 11.9628V3.5625C16.625 3.09016 16.4373 2.63701 16.1033 2.30299C15.7692 1.96897 15.3161 1.78125 14.8438 1.78125ZM15.4375 11.2812V3.5625C15.4375 3.40499 15.375 3.25394 15.2636 3.1426C15.1523 3.03126 15.0013 2.96875 14.8438 2.96875H4.15625C3.99874 2.96875 3.84769 3.03126 3.73635 3.1426C3.62501 3.25394 3.5625 3.40499 3.5625 3.5625V15.4375C3.5625 15.595 3.62501 15.7461 3.73635 15.8574C3.84769 15.9687 3.99874 16.0312 4.15625 16.0312H10.0938V13.0625C10.0938 12.0787 10.8912 11.2812 11.875 11.2812H15.4375ZM15.1666 12.4688H11.875C11.5471 12.4688 11.2812 12.7346 11.2812 13.0625V15.839L15.1666 12.4688Z" fill="#0D1B2A"/>
<path fill-rule="evenodd" clip-rule="evenodd" d="M5.9375 5.9375H13.0625C13.3903 5.9375 13.6562 5.6715 13.6562 5.34375C13.6562 5.016 13.3903 4.75 13.0625 4.75H5.9375C5.60975 4.75 5.34375 5.016 5.34375 5.34375C5.34375 5.6715 5.60975 5.9375 5.9375 5.9375Z" fill="#0D1B2A"/>
<path fill-rule="evenodd" clip-rule="evenodd" d="M5.9375 8.75781H13.0625C13.3903 8.75781 13.6562 8.49162 13.6562 8.16406C13.6562 7.83631 13.3903 7.57031 13.0625 7.57031H5.9375C5.60975 7.57031 5.34375 7.83631 5.34375 8.16406C5.34375 8.49162 5.60975 8.75781 5.9375 8.75781Z" fill="#0D1B2A"/>
</svg>
