<svg width="24" height="24" viewBox="0 0 24 24" fill="none" xmlns="http://www.w3.org/2000/svg">
<path d="M8.50573 10.7144C8.50573 9.79392 9.2609 9.04772 10.1924 9.04772C11.124 9.04772 11.8792 9.79392 11.8792 10.7144C11.8792 11.6349 11.124 12.3811 10.1924 12.3811C9.2609 12.3811 8.50573 11.6349 8.50573 10.7144Z" fill="#6B9CFF"/>
<path fill-rule="evenodd" clip-rule="evenodd" d="M2 10.7143C2 8.02057 2 6.67369 2.84691 5.83684C3.69381 5 5.05688 5 7.78303 5H12.6022C15.3284 5 16.6914 5 17.5384 5.83684C18.3853 6.67369 18.3853 8.02057 18.3853 10.7143C18.3853 13.4081 18.3853 14.755 17.5384 15.5918C16.6914 16.4287 15.3284 16.4287 12.6022 16.4287H7.78303C5.05688 16.4287 3.69381 16.4287 2.84691 15.5918C2 14.755 2 13.4081 2 10.7143ZM7.05997 10.7144C7.05997 9.00494 8.46243 7.61914 10.1924 7.61914C11.9225 7.61914 13.3249 9.00494 13.3249 10.7144C13.3249 12.4239 11.9225 13.8097 10.1924 13.8097C8.46243 13.8097 7.05997 12.4239 7.05997 10.7144ZM4.16846 12.6192C4.16846 13.0137 4.4921 13.3335 4.89134 13.3335C5.29057 13.3335 5.61422 13.0137 5.61422 12.6192L5.61421 8.80963C5.61421 8.41513 5.29057 8.09534 4.89134 8.09534C4.4921 8.09534 4.16846 8.41513 4.16846 8.80963L4.16846 12.6192ZM15.4936 13.3335C15.0943 13.3335 14.7707 13.0137 14.7707 12.6192V8.80963C14.7707 8.41513 15.0943 8.09534 15.4936 8.09534C15.8928 8.09534 16.2164 8.41513 16.2164 8.80963V12.6192C16.2164 13.0137 15.8928 13.3335 15.4936 13.3335Z" fill="#6B9CFF"/>
<path opacity="0.5" d="M4.06531 16.2252C4.07835 16.3762 4.09401 16.5207 4.11282 16.659C4.22946 17.5162 4.47899 18.238 5.05914 18.8113C5.14173 18.8929 5.22737 18.9679 5.31602 19.0368C5.8814 19.5508 6.58182 19.7787 7.40596 19.8882C8.24157 19.9992 9.30403 19.9992 10.6222 19.9992H15.5471C16.8653 19.9992 17.9277 19.9992 18.7634 19.8882C19.6309 19.773 20.3614 19.5264 20.9415 18.9532C21.5217 18.3799 21.7712 17.6581 21.8878 16.8008C22.0002 15.9752 22.0002 14.9253 22.0002 13.6228V13.5183C22.0002 12.2158 22.0002 11.166 21.8878 10.3403C21.7712 9.48306 21.5217 8.76127 20.9415 8.18801C20.8589 8.1064 20.7733 8.03141 20.6846 7.96247C20.1193 7.44851 19.4188 7.22053 18.5947 7.11104C18.4639 7.09367 18.3276 7.07901 18.1856 7.06665C18.3853 7.90004 18.3853 9.05018 18.3853 10.7144C18.3853 13.4082 18.3853 14.755 17.5384 15.5919C16.6915 16.4287 15.3284 16.4287 12.6022 16.4287H7.78305C6.08135 16.4287 4.91077 16.4287 4.06531 16.2252Z" fill="#6B9CFF"/>
</svg>
