<svg viewBox="0 0 20 20" fill="none" xmlns="http://www.w3.org/2000/svg">
<path d="M16.6336 14.0667C16.4127 13.8083 16.1127 13.6375 15.7877 13.5833C15.4502 13.5292 15.0794 13.5833 14.6586 13.7583L11.8044 14.8792C11.8044 14.7542 11.7794 14.6208 11.7377 14.4833C11.6169 14.1083 11.3419 13.8 10.9711 13.6333C10.9336 13.6167 9.6294 13.0833 9.6294 13.0833L7.42106 12.1667C7.2669 12.1 7.10023 12.0667 6.92106 12.0667C6.26273 12.0667 5.62523 12.3292 5.16273 12.7917C5.0544 12.9 4.95023 13.025 4.8669 13.15L3.22523 14.175C3.08356 14.2667 3.00856 14.4333 3.03356 14.6L3.5294 17.4792C3.55023 17.5917 3.61273 17.6917 3.70856 17.7542C3.8044 17.8167 3.92106 17.8375 4.03356 17.8125L5.20856 17.5333C6.3544 17.2625 7.6419 17.7875 8.8044 18.2667L9.6419 18.6125C9.90856 18.725 10.1836 18.7792 10.4586 18.7792C10.8877 18.7792 11.3127 18.6458 11.7127 18.3875L16.2544 16.0792C16.4377 15.9875 16.6711 15.8417 16.8252 15.5542C17.0752 15.0917 16.9961 14.4917 16.6336 14.0667ZM16.0919 15.1583C16.0586 15.2167 16.0127 15.2667 15.8794 15.3333L11.3044 17.6583C10.8377 17.9583 10.4002 18.0167 9.96273 17.8375L9.10023 17.4792C8.1044 17.0708 7.00023 16.6208 5.88356 16.6208C5.59606 16.6208 5.30856 16.65 5.0169 16.7208L4.27523 16.8958L3.90023 14.7292L5.38356 13.8C5.43773 13.7667 5.48356 13.7208 5.5169 13.6667C5.5794 13.5667 5.65856 13.4667 5.75023 13.375C6.0544 13.0708 6.48356 12.8958 6.9169 12.8958C6.98356 12.8958 7.0419 12.9083 7.0919 12.9292L9.3044 13.85L10.6377 14.3958C10.7794 14.4625 10.8877 14.5833 10.9377 14.7375C10.9586 14.8083 10.9711 14.8667 10.9627 14.9125C10.9544 14.9833 10.9461 15.0708 10.9252 15.1208C10.8961 15.1917 10.8544 15.25 10.8044 15.3042L10.7919 15.3166C10.6419 15.4583 10.4044 15.5041 10.2044 15.4208L8.32523 14.6417C8.11273 14.5542 7.8669 14.6542 7.7794 14.8667C7.6919 15.0792 7.7919 15.325 8.0044 15.4125L9.88356 16.1917C10.3627 16.3917 10.9336 16.2917 11.3086 15.9708L14.9586 14.5375C15.2377 14.425 15.4627 14.3833 15.6419 14.4125C15.7711 14.4333 15.8961 14.5083 15.9877 14.6167C16.1252 14.7792 16.1627 15.0083 16.0794 15.1667L16.0919 15.1583Z" fill="#0D1B2A"/>
<path d="M4.45423 10.0875C4.47923 10.0875 4.50423 10.0875 4.52923 10.0792C4.75423 10.0375 4.90423 9.82083 4.86673 9.59583C4.8334 9.42083 4.8209 9.25833 4.8209 9.10417C4.8209 7.45417 6.2209 6.1125 7.9459 6.1125C8.50423 6.1125 9.0459 6.25833 9.52507 6.525C9.6959 6.7875 9.91256 7.01667 10.1626 7.20417C8.45006 7.79583 7.1459 9.29583 6.85007 11.2C6.81673 11.4292 6.9709 11.6417 7.20007 11.675C7.2209 11.675 7.24173 11.6792 7.26257 11.6792C7.46257 11.6792 7.64173 11.5333 7.67507 11.325C7.9959 9.25833 9.72506 7.75833 11.7917 7.75833C13.8584 7.75833 15.5792 9.25417 15.9042 11.3125C15.9417 11.5417 16.1542 11.6958 16.3792 11.6583C16.6084 11.6208 16.7626 11.4083 16.7251 11.1833C16.4251 9.27917 15.1167 7.78333 13.4001 7.19583C14.0584 6.69583 14.4834 5.90417 14.4834 5.00833C14.4834 3.5 13.2667 2.27083 11.7751 2.27083C11.0626 2.27083 10.4167 2.55417 9.9334 3.00833C9.57923 2.26667 8.82506 1.75 7.94173 1.75C6.72923 1.75 5.74173 2.72917 5.74173 3.92917C5.74173 4.575 6.0334 5.15 6.4834 5.54583C5.0209 6.10833 3.9834 7.4875 3.9834 9.1C3.9834 9.30833 4.00423 9.51667 4.0459 9.74167C4.0834 9.94167 4.2584 10.0833 4.45423 10.0833V10.0875ZM11.7751 3.10833C12.8084 3.10833 13.6501 3.9625 13.6501 5.0125C13.6501 6.0625 12.8084 6.91667 11.7751 6.91667C10.7417 6.91667 9.90007 6.0625 9.90007 5.0125C9.90007 3.9625 10.7417 3.10833 11.7751 3.10833ZM7.94173 2.5875C8.6709 2.5875 9.26257 3.15 9.30423 3.89583C9.1959 4.13333 9.12506 4.39167 9.09173 4.6625C8.83756 5.04583 8.4084 5.27917 7.94173 5.27917C7.18756 5.27917 6.57506 4.675 6.57506 3.93333C6.57506 3.19167 7.18756 2.5875 7.94173 2.5875Z" fill="#0D1B2A"/>
</svg>
