<svg preserveAspectRatio="none" width="100%" height="100%" overflow="visible" style="display: block;" viewBox="0 0 17 17" fill="none" xmlns="http://www.w3.org/2000/svg">
<g id="call">
<path id="Vector" d="M12.3604 16.1146C11.56 16.1146 10.7171 15.9233 9.84583 15.555C8.99583 15.1937 8.13875 14.6979 7.30292 14.0958C6.47417 13.4867 5.67375 12.8067 4.91583 12.0629C4.165 11.305 3.485 10.5046 2.88292 9.68292C2.27375 8.83292 1.785 7.98292 1.43792 7.16125C1.06958 6.28292 0.885417 5.43292 0.885417 4.6325C0.885417 4.08 0.984583 3.55583 1.17583 3.06708C1.37417 2.56417 1.69292 2.09667 2.125 1.69292C2.67042 1.15458 3.29375 0.885417 3.95958 0.885417C4.23583 0.885417 4.51917 0.949167 4.76 1.0625C5.03625 1.19 5.27 1.38125 5.44 1.63625L7.08333 3.9525C7.23208 4.15792 7.34542 4.35625 7.42333 4.55458C7.51542 4.76708 7.565 4.97958 7.565 5.185C7.565 5.45417 7.48708 5.71625 7.33833 5.96417C7.23208 6.15542 7.06917 6.36083 6.86375 6.56625L6.38208 7.06917C6.38917 7.09042 6.39625 7.10458 6.40333 7.11875C6.48833 7.2675 6.65833 7.5225 6.98417 7.905C7.33125 8.30167 7.65708 8.66292 7.98292 8.99583C8.40083 9.40667 8.74792 9.7325 9.07375 10.0017C9.4775 10.3417 9.73958 10.5117 9.89542 10.5896L9.88125 10.625L10.3983 10.115C10.6179 9.89542 10.8304 9.7325 11.0358 9.62625C11.4254 9.38542 11.9213 9.34292 12.4171 9.54833C12.6013 9.62625 12.7996 9.7325 13.0121 9.88125L15.3638 11.5529C15.6258 11.73 15.8171 11.9567 15.9304 12.2258C16.0367 12.495 16.0863 12.7429 16.0863 12.9908C16.0863 13.3308 16.0083 13.6708 15.8596 13.9896C15.7108 14.3083 15.5267 14.5846 15.2929 14.8396C14.8892 15.2858 14.45 15.6046 13.94 15.81C13.4513 16.0083 12.92 16.1146 12.3604 16.1146ZM3.95958 1.94792C3.57 1.94792 3.20875 2.11792 2.86167 2.45792C2.53583 2.7625 2.30917 3.09542 2.1675 3.45667C2.01875 3.825 1.94792 4.21458 1.94792 4.6325C1.94792 5.29125 2.10375 6.00667 2.41542 6.74333C2.73417 7.49417 3.18042 8.27333 3.74708 9.0525C4.31375 9.83167 4.95833 10.5896 5.66667 11.305C6.375 12.0062 7.14 12.6579 7.92625 13.2317C8.69125 13.7912 9.4775 14.2446 10.2567 14.5704C11.4679 15.0875 12.6013 15.2079 13.5363 14.8183C13.8975 14.6696 14.2163 14.4429 14.5067 14.1171C14.6696 13.94 14.7971 13.7487 14.9033 13.5221C14.9883 13.345 15.0308 13.1608 15.0308 12.9767C15.0308 12.8633 15.0096 12.75 14.9529 12.6225C14.9317 12.58 14.8892 12.5021 14.7546 12.41L12.4029 10.7383C12.2613 10.6392 12.1337 10.5683 12.0133 10.5187C11.8575 10.455 11.7938 10.3912 11.5529 10.54C11.4113 10.6108 11.2838 10.7171 11.1421 10.8587L10.6038 11.39C10.3275 11.6592 9.9025 11.7229 9.57667 11.6025L9.38542 11.5175C9.095 11.3617 8.755 11.1208 8.37958 10.8021C8.03958 10.5117 7.67125 10.1717 7.225 9.7325C6.87792 9.37833 6.53083 9.00292 6.16958 8.585C5.83667 8.19542 5.59583 7.8625 5.44708 7.58625L5.36208 7.37375C5.31958 7.21083 5.30542 7.11875 5.30542 7.01958C5.30542 6.76458 5.3975 6.53792 5.57458 6.36083L6.10583 5.80833C6.2475 5.66667 6.35375 5.53208 6.42458 5.41167C6.48125 5.31958 6.5025 5.24167 6.5025 5.17083C6.5025 5.11417 6.48125 5.02917 6.44583 4.94417C6.39625 4.83083 6.31833 4.70333 6.21917 4.56875L4.57583 2.24542C4.505 2.14625 4.42 2.07542 4.31375 2.02583C4.20042 1.97625 4.08 1.94792 3.95958 1.94792ZM9.88125 10.6321L9.76792 11.1137L9.95917 10.6179C9.92375 10.6108 9.89542 10.6179 9.88125 10.6321Z" fill="#0D1B2A"/>
<g id="Vector_2" opacity="0">
</g>
</g>
</svg>
