<svg preserveAspectRatio="none" width="100%" height="100%" overflow="visible" style="display: block;" viewBox="0 0 17 17" fill="none" xmlns="http://www.w3.org/2000/svg">
<g id="clock">
<path id="Vector" d="M8.5 16.1146C4.29958 16.1146 0.885417 12.7004 0.885417 8.5C0.885417 4.29958 4.29958 0.885417 8.5 0.885417C12.7004 0.885417 16.1146 4.29958 16.1146 8.5C16.1146 12.7004 12.7004 16.1146 8.5 16.1146ZM8.5 1.94792C4.8875 1.94792 1.94792 4.8875 1.94792 8.5C1.94792 12.1125 4.8875 15.0521 8.5 15.0521C12.1125 15.0521 15.0521 12.1125 15.0521 8.5C15.0521 4.8875 12.1125 1.94792 8.5 1.94792Z" fill="#0D1B2A"/>
<path id="Vector_2" d="M11.1279 11.2837C11.0358 11.2837 10.9437 11.2625 10.8587 11.2058L8.66292 9.89542C8.1175 9.56958 7.71375 8.85417 7.71375 8.22375V5.31958C7.71375 5.02917 7.95458 4.78833 8.245 4.78833C8.53542 4.78833 8.77625 5.02917 8.77625 5.31958V8.22375C8.77625 8.47875 8.98875 8.85417 9.20833 8.98167L11.4042 10.2921C11.6592 10.4408 11.7371 10.7667 11.5883 11.0217C11.4821 11.1917 11.305 11.2837 11.1279 11.2837Z" fill="#0D1B2A"/>
<g id="Vector_3" opacity="0">
</g>
</g>
</svg>
