<svg width="24" height="24" viewBox="0 0 24 24" fill="none" xmlns="http://www.w3.org/2000/svg">
<path d="M2 12.2039C2 9.91549 2 8.77128 2.5192 7.82274C3.0384 6.87421 3.98695 6.28551 5.88403 5.10813L7.88403 3.86687C9.88939 2.62229 10.8921 2 12 2C13.1079 2 14.1106 2.62229 16.116 3.86687L18.116 5.10812C20.0131 6.28551 20.9616 6.87421 21.4808 7.82274C22 8.77128 22 9.91549 22 11.2039V12.725C22 16.6258 22 18.5763 20.8284 19.7881C19.6569 21 17.7712 21 14 21H10C6.22876 21 4.34315 21 3.17157 19.7881C2 18.5763 2 16.6258 2 12.725V12.2039Z" fill="white"/>
<path d="M8.25 20.25C8.66421 20.25 9 19.9142 9 19.5V19.25C9 18.8358 9.33579 18.5 9.75 18.5H14.25C14.6642 18.5 15 18.8358 15 19.25V19.5C15 19.9142 15.3358 20.25 15.75 20.25H8.25Z" fill="#003399"/>
</svg>
