<svg preserveAspectRatio="none" width="100%" height="100%" overflow="visible" style="display: block;" viewBox="0 0 9.99719 9.74988" fill="none" xmlns="http://www.w3.org/2000/svg">
<g id="Group">
<path id="Vector" d="M4.99708 8.87493C5.41129 8.87493 5.74708 8.53915 5.74708 8.12493C5.74708 7.71072 5.41129 7.37493 4.99708 7.37493C4.58287 7.37493 4.24708 7.71072 4.24708 8.12493C4.24708 8.53915 4.58287 8.87493 4.99708 8.87493Z" fill="var(--fill-0, black)"/>
<path id="Vector_2" d="M0.152131 3.64878C0.350131 3.84118 0.666531 3.83578 0.859181 3.63803C1.96563 2.49593 3.43558 1.86753 4.99833 1.86703C5.48793 1.86703 5.96693 1.93338 6.42958 2.05448L5.71858 3.12103C5.48208 3.08238 5.24283 3.05503 4.99858 3.05503C3.72903 3.05503 2.53668 3.56433 1.64043 4.48863C1.44828 4.68688 1.45318 5.00378 1.65168 5.19568C1.84943 5.38758 2.16583 5.38318 2.35873 5.18493C3.06478 4.45643 4.00228 4.05503 4.99863 4.05503C5.02983 4.05503 5.05993 4.06148 5.09098 4.06248L4.21008 5.38383C3.81113 5.50908 3.44298 5.72343 3.13998 6.03598C2.94783 6.23423 2.95273 6.55113 3.15123 6.74303C3.18268 6.77353 3.21833 6.79633 3.25473 6.81688L1.68808 9.16688C1.57308 9.33923 1.61973 9.57213 1.79208 9.68688C1.85603 9.72938 1.92833 9.74988 1.99983 9.74988C2.12093 9.74988 2.23983 9.69128 2.31208 9.58288L8.31208 0.582882C8.42708 0.410532 8.38043 0.177632 8.20808 0.0628816C8.03618 -0.0513684 7.80328 -0.00596839 7.68808 0.166882L7.00783 1.18723C6.36433 0.982982 5.69118 0.867082 4.99838 0.867082C3.16268 0.867582 1.43758 1.60438 0.140981 2.94178C-0.0512194 3.14003 -0.0463194 3.45688 0.152131 3.64878Z" fill="var(--fill-0, black)"/>
<path id="Vector_3" d="M9.49713 3.78993C9.62263 3.78993 9.74813 3.74303 9.84503 3.64883C10.0435 3.45693 10.0484 3.14003 9.85628 2.94178C9.34493 2.41423 8.76353 1.98778 8.13828 1.65588L7.57948 2.49408C8.14803 2.78303 8.67648 3.16178 9.13803 3.63808C9.23613 3.73913 9.36648 3.78993 9.49713 3.78993Z" fill="var(--fill-0, black)"/>
<path id="Vector_4" d="M7.99758 5.33678C8.12308 5.33678 8.24858 5.28988 8.34548 5.19568C8.54398 5.00378 8.54883 4.68688 8.35673 4.48863C7.93713 4.05593 7.45073 3.71858 6.92373 3.47763L6.35813 4.32603C6.83128 4.51708 7.26803 4.80268 7.63848 5.18493C7.73663 5.28598 7.86698 5.33678 7.99758 5.33678Z" fill="var(--fill-0, black)"/>
<path id="Vector_5" d="M6.49808 6.88413C6.62358 6.88413 6.74908 6.83723 6.84598 6.74303C7.04448 6.55113 7.04933 6.23423 6.85723 6.03598C6.52658 5.69493 6.11933 5.46658 5.67813 5.34603L5.06398 6.26728C5.45928 6.28283 5.84958 6.43343 6.13898 6.73233C6.23713 6.83338 6.36748 6.88413 6.49808 6.88413Z" fill="var(--fill-0, black)"/>
</g>
</svg>
