<svg width="12" height="12" viewBox="0 0 12 12" fill="none" xmlns="http://www.w3.org/2000/svg">
<path d="M5.99994 7.08497C4.93494 7.08497 4.06494 6.21997 4.06494 5.14997C4.06494 4.07997 4.93494 3.21997 5.99994 3.21997C7.06494 3.21997 7.93494 4.08497 7.93494 5.15497C7.93494 6.22497 7.06494 7.08497 5.99994 7.08497ZM5.99994 3.96997C5.34994 3.96997 4.81494 4.49997 4.81494 5.15497C4.81494 5.80997 5.34494 6.33997 5.99994 6.33997C6.65494 6.33997 7.18494 5.80997 7.18494 5.15497C7.18494 4.49997 6.64994 3.96997 5.99994 3.96997Z" fill="#1F78FF"/>
<path d="M6.00009 11.38C5.26009 11.38 4.51509 11.1 3.93509 10.545C2.46009 9.125 0.830088 6.86 1.44509 4.165C2.00009 1.72 4.13509 0.625 6.00009 0.625C6.00009 0.625 6.00009 0.625 6.00509 0.625C7.87009 0.625 10.0051 1.72 10.5601 4.17C11.1701 6.865 9.54009 9.125 8.06509 10.545C7.48509 11.1 6.74009 11.38 6.00009 11.38ZM6.00009 1.375C4.54509 1.375 2.67509 2.15 2.18009 4.33C1.64009 6.685 3.12009 8.715 4.46009 10C5.32509 10.835 6.68009 10.835 7.54509 10C8.88009 8.715 10.3601 6.685 9.83009 4.33C9.33009 2.15 7.45509 1.375 6.00009 1.375Z" fill="#1F78FF"/>
</svg>
