<svg preserveAspectRatio="none" width="100%" height="100%" overflow="visible" style="display: block;" viewBox="0 0 12 12" fill="none" xmlns="http://www.w3.org/2000/svg">
<g id="location">
<path id="Vector" d="M6 7.085C4.935 7.085 4.065 6.22 4.065 5.15C4.065 4.08 4.935 3.22 6 3.22C7.065 3.22 7.935 4.085 7.935 5.155C7.935 6.225 7.065 7.085 6 7.085ZM6 3.97C5.35 3.97 4.815 4.5 4.815 5.155C4.815 5.81 5.345 6.34 6 6.34C6.655 6.34 7.185 5.81 7.185 5.155C7.185 4.5 6.65 3.97 6 3.97Z" fill="var(--fill-0, #1F78FF)"/>
<path id="Vector_2" d="M6 11.38C5.26 11.38 4.515 11.1 3.935 10.545C2.46 9.125 0.83 6.86 1.445 4.165C2 1.72 4.135 0.625 6 0.625C6 0.625 6 0.625 6.005 0.625C7.87 0.625 10.005 1.72 10.56 4.17C11.17 6.865 9.54 9.125 8.065 10.545C7.485 11.1 6.74 11.38 6 11.38ZM6 1.375C4.545 1.375 2.675 2.15 2.18 4.33C1.64 6.685 3.12 8.715 4.46 10C5.325 10.835 6.68 10.835 7.545 10C8.88 8.715 10.36 6.685 9.83 4.33C9.33 2.15 7.455 1.375 6 1.375Z" fill="var(--fill-0, #1F78FF)"/>
<g id="Vector_3" opacity="0">
</g>
</g>
</svg>
