<svg width="51" height="51" viewBox="0 0 51 51" fill="none" xmlns="http://www.w3.org/2000/svg">
<path d="M35.7 4.25H30.175C23.375 4.25 19.125 8.5 19.125 15.3V23.9062H32.4062C33.2775 23.9062 34 24.6288 34 25.5C34 26.3712 33.2775 27.0938 32.4062 27.0938H19.125V35.7C19.125 42.5 23.375 46.75 30.175 46.75H35.6788C42.4788 46.75 46.7287 42.5 46.7287 35.7V15.3C46.75 8.5 42.5 4.25 35.7 4.25Z" fill="white"/>
<path d="M9.69 23.9063L14.0888 19.5075C14.4075 19.1888 14.5562 18.785 14.5562 18.3812C14.5562 17.9775 14.4075 17.5525 14.0888 17.255C13.4725 16.6387 12.4525 16.6387 11.8363 17.255L4.7175 24.3738C4.10125 24.99 4.10125 26.01 4.7175 26.6262L11.8363 33.745C12.4525 34.3613 13.4725 34.3613 14.0888 33.745C14.705 33.1288 14.705 32.1087 14.0888 31.4925L9.69 27.0938H19.125V23.9063H9.69V23.9063Z" fill="white"/>
</svg>
