<svg width="24" height="24" viewBox="0 0 24 24" fill="none" xmlns="http://www.w3.org/2000/svg">
<path fill-rule="evenodd" clip-rule="evenodd" d="M4.75 1C5.16421 1 5.5 1.33579 5.5 1.75V2.83515L7.07358 2.52043C8.86678 2.16179 10.7256 2.33245 12.4235 3.01161L12.8368 3.17693C14.1152 3.68832 15.5224 3.78382 16.8582 3.44986C18.1375 3.13005 19.1647 4.51652 18.4863 5.64719L17.2078 7.77808C16.8314 8.40542 16.771 8.53483 16.7556 8.65275C16.7472 8.71731 16.7472 8.78269 16.7556 8.84725C16.771 8.96517 16.8314 9.09458 17.2078 9.72192L18.7684 12.323C19.3384 13.2729 18.8287 14.5034 17.754 14.7721L17.6539 14.7971C15.7314 15.2777 13.7063 15.1403 11.8664 14.4043C10.4386 13.8332 8.87562 13.6897 7.36776 13.9913L5.5 14.3649V21.75C5.5 22.1642 5.16421 22.5 4.75 22.5C4.33579 22.5 4 22.1642 4 21.75V1.75C4 1.33579 4.33579 1 4.75 1ZM5.5 12.8351L7.07358 12.5204C8.86678 12.1618 10.7256 12.3325 12.4235 13.0116C13.9706 13.6305 15.6735 13.746 17.2901 13.3419L17.3902 13.3169C17.4877 13.2925 17.5339 13.1809 17.4822 13.0947L15.9216 10.4937C15.9017 10.4606 15.882 10.4279 15.8625 10.3955C15.5795 9.92559 15.3296 9.51055 15.2683 9.04176C15.243 8.84808 15.243 8.65192 15.2683 8.45824C15.3296 7.98946 15.5795 7.57441 15.8625 7.10454C15.882 7.07208 15.9017 7.03936 15.9216 7.00634L17.1754 4.91658C15.5476 5.31324 13.836 5.1922 12.2797 4.56964L11.8664 4.40433C10.4386 3.83323 8.87562 3.68973 7.36776 3.9913L5.5 4.36485V12.8351Z" fill="#FFFFFF"/>
</svg>
