<svg preserveAspectRatio="none" width="100%" height="100%" overflow="visible" style="display: block;" viewBox="0 0 22 22" fill="none" xmlns="http://www.w3.org/2000/svg">
<path id="Vector" fill-rule="evenodd" clip-rule="evenodd" d="M11 0C17.0741 0 22 4.92594 22 11C22 17.0741 17.0741 22 11 22C4.92594 22 0 17.0741 0 11C0 4.92594 4.92594 0 11 0ZM8.71571 14.5729L6.02264 11.8776C5.56384 11.4185 5.56374 10.6699 6.02264 10.2109C6.48164 9.75199 7.23359 9.75487 7.68925 10.2109L9.58785 12.111L14.3109 7.38791C14.7699 6.92891 15.5186 6.92891 15.9775 7.38791C16.4365 7.84681 16.4359 8.59617 15.9775 9.05452L10.4198 14.6122C9.96147 15.0706 9.2121 15.0712 8.7532 14.6122C8.7403 14.5993 8.72786 14.5862 8.71571 14.5729Z" fill="var(--fill-0, #1F78FF)"/>
</svg>
