<svg preserveAspectRatio="none" width="100%" height="100%" overflow="visible" style="display: block;" viewBox="0 0 17 17" fill="none" xmlns="http://www.w3.org/2000/svg">
<g id="fi_1549456" clip-path="url(#clip0_0_76)">
<path id="Vector" d="M16.8868 7.08895C16.7359 6.93808 16.4911 6.93808 16.3403 7.08895L15.4278 8.00153C15.2063 5.00308 13.0812 2.48724 10.162 1.76742C7.24294 1.04746 4.19184 2.28697 2.6016 4.83862C2.52702 4.95566 2.52093 5.10385 2.58575 5.22669C2.65057 5.34954 2.77625 5.42823 2.91509 5.43262C3.05393 5.43715 3.18457 5.36667 3.25703 5.24821C4.66002 2.99746 7.34314 1.8931 9.92394 2.50422C12.5049 3.11535 14.4079 5.30539 14.6527 7.94634L13.7949 7.08895C13.6434 6.9426 13.4023 6.94459 13.2532 7.09376C13.1041 7.24279 13.102 7.48382 13.2485 7.63554L14.7944 9.18133C14.9453 9.33234 15.19 9.33234 15.3409 9.18133L16.8868 7.63554C17.0378 7.48466 17.0378 7.23982 16.8868 7.08895Z" fill="var(--fill-0, black)"/>
<path id="Vector_2" d="M14.2715 11.6723C14.0904 11.5595 13.8521 11.6144 13.7386 11.795C12.3356 14.046 9.65249 15.1504 7.07141 14.5392C4.49046 13.9281 2.58745 11.7379 2.34275 9.09683L3.20028 9.95436C3.35186 10.1007 3.59288 10.0987 3.74205 9.94955C3.89108 9.80052 3.89321 9.55949 3.74672 9.40777L2.20079 7.86198C2.04992 7.71097 1.80522 7.71097 1.65434 7.86198L0.108554 9.40777C-0.0379298 9.55949 -0.0359483 9.80052 0.113224 9.94955C0.262255 10.0987 0.503281 10.1007 0.655001 9.95436L1.56745 9.04178C1.78908 12.0402 3.91401 14.5561 6.83321 15.2759C9.75241 15.9959 12.8034 14.7565 14.3936 12.2047C14.5065 12.024 14.4519 11.7858 14.2715 11.6723Z" fill="var(--fill-0, black)"/>
</g>
<defs>
<clipPath id="clip0_0_76">
<rect width="17" height="17" fill="white"/>
</clipPath>
</defs>
</svg>
