<svg preserveAspectRatio="none" width="100%" height="100%" overflow="visible" style="display: block;" viewBox="0 0 8 8" fill="none" xmlns="http://www.w3.org/2000/svg">
<g id="fi_2550207" clip-path="url(#clip0_0_40)">
<path id="Vector" d="M7.91025 0.189063C7.82236 0.0671406 7.68148 0 7.51355 0C7.4347 0 7.35017 0.0148594 7.26234 0.0441562L0.45878 2.312C0.22378 2.39033 0.0618116 2.55041 0.0143897 2.75122C-0.0330322 2.95205 0.0402334 3.1677 0.215405 3.34292C0.23253 3.36006 0.252218 3.37444 0.273749 3.38555L3.13814 4.86206L4.61472 7.72647C4.62581 7.74798 4.64019 7.76767 4.65731 7.7848C4.79808 7.92558 4.96042 8 5.12683 8.00002H5.12687C5.37887 8.00002 5.594 7.82427 5.68823 7.54144L7.95613 0.737891C8.02742 0.523922 8.01113 0.329016 7.91025 0.189063ZM0.470593 2.85895C0.479562 2.82094 0.531843 2.78177 0.606999 2.7567L7.06458 0.604172L3.26744 4.40131L0.524624 2.98748C0.483312 2.9392 0.46289 2.89158 0.470593 2.85895ZM5.24353 7.39322C5.22128 7.45995 5.17897 7.53125 5.12687 7.53125C5.09531 7.53125 5.054 7.51083 5.01277 7.47556L3.59889 4.73277L7.39614 0.935531L5.24353 7.39322Z" fill="var(--fill-0, #1F78FF)"/>
</g>
<defs>
<clipPath id="clip0_0_40">
<rect width="8" height="8" fill="white"/>
</clipPath>
</defs>
</svg>
