<svg width="36" height="36" viewBox="0 0 36 36" fill="none" xmlns="http://www.w3.org/2000/svg">
<circle cx="13" cy="18" r="12" fill="#FFFFFF"/>
<path fill-rule="evenodd" clip-rule="evenodd" d="M13 7C19.0741 7 24 11.9259 24 18C24 24.0741 19.0741 29 13 29C6.92594 29 2 24.0741 2 18C2 11.9259 6.92594 7 13 7ZM10.7157 21.5729L8.02264 18.8776C7.56384 18.4185 7.56374 17.6699 8.02264 17.2109C8.48164 16.752 9.23359 16.7549 9.68925 17.2109L11.5878 19.111L16.3109 14.3879C16.7699 13.9289 17.5186 13.9289 17.9775 14.3879C18.4365 14.8468 18.4359 15.5962 17.9775 16.0545L12.4198 21.6122C11.9615 22.0706 11.2121 22.0712 10.7532 21.6122C10.7403 21.5993 10.7279 21.5862 10.7157 21.5729Z" fill="#00BA00"/>
</svg>
