<svg preserveAspectRatio="none" width="100%" height="100%" overflow="visible" style="display: block;" viewBox="0 0 17 17" fill="none" xmlns="http://www.w3.org/2000/svg">
<g id="user">
<path id="Vector" d="M8.5 9.03125C6.25458 9.03125 4.42708 7.20375 4.42708 4.95833C4.42708 2.71292 6.25458 0.885417 8.5 0.885417C10.7454 0.885417 12.5729 2.71292 12.5729 4.95833C12.5729 7.20375 10.7454 9.03125 8.5 9.03125ZM8.5 1.94792C6.8425 1.94792 5.48958 3.30083 5.48958 4.95833C5.48958 6.61583 6.8425 7.96875 8.5 7.96875C10.1575 7.96875 11.5104 6.61583 11.5104 4.95833C11.5104 3.30083 10.1575 1.94792 8.5 1.94792Z" fill="#0D1B2A"/>
<path id="Vector_2" d="M14.5847 16.1146C14.2943 16.1146 14.0534 15.8738 14.0534 15.5833C14.0534 13.1396 11.5601 11.1563 8.50011 11.1563C5.44011 11.1563 2.94678 13.1396 2.94678 15.5833C2.94678 15.8738 2.70594 16.1146 2.41553 16.1146C2.12511 16.1146 1.88428 15.8738 1.88428 15.5833C1.88428 12.5588 4.85219 10.0938 8.50011 10.0938C12.148 10.0938 15.1159 12.5588 15.1159 15.5833C15.1159 15.8738 14.8751 16.1146 14.5847 16.1146Z" fill="#0D1B2A"/>
<g id="Vector_3" opacity="0">
</g>
</g>
</svg>
