<svg viewBox="0 0 10 10" fill="none" xmlns="http://www.w3.org/2000/svg">
<path d="M7.16517 3.39213C7.31681 3.54377 7.31681 3.78957 7.16517 3.94112L4.56101 6.54537C4.40937 6.69693 4.16365 6.69693 4.01201 6.54537L2.77233 5.30561C2.62069 5.15405 2.62069 4.90825 2.77233 4.75669C2.92389 4.60506 3.16969 4.60506 3.32124 4.75669L4.28647 5.72192L6.61618 3.39213C6.76781 3.24057 7.01361 3.24057 7.16517 3.39213ZM9.9375 4.96875C9.9375 7.71522 7.71485 9.9375 4.96875 9.9375C2.22228 9.9375 0 7.71485 0 4.96875C0 2.22228 2.22265 0 4.96875 0C7.71522 0 9.9375 2.22265 9.9375 4.96875ZM9.16113 4.96875C9.16113 2.6514 7.2858 0.776367 4.96875 0.776367C2.6514 0.776367 0.776367 2.6517 0.776367 4.96875C0.776367 7.2861 2.6517 9.16113 4.96875 9.16113C7.2861 9.16113 9.16113 7.2858 9.16113 4.96875Z" fill="white"/>
</svg>
