<svg width="24" height="24" viewBox="0 0 14.25 15.4375" fill="none" xmlns="http://www.w3.org/2000/svg">
<path fill-rule="evenodd" clip-rule="evenodd" d="M12.4687 0C9.98469 0 4.26531 0 1.78125 0C1.30891 0 0.85576 0.18772 0.52174 0.52174C0.18772 0.85576 0 1.30891 0 1.78125V13.6562C0 14.1286 0.18772 14.5817 0.52174 14.9158C0.85576 15.2498 1.30891 15.4375 1.78125 15.4375H8.46298C8.89181 15.4375 9.3062 15.2828 9.63015 15.0018C10.4787 14.2658 12.7118 12.3287 13.6359 11.5271C14.026 11.1889 14.25 10.698 14.25 10.1815V1.78125C14.25 1.30891 14.0623 0.85576 13.7283 0.52174C13.3942 0.18772 12.9411 0 12.4687 0ZM13.0625 9.5V1.78125C13.0625 1.62374 13 1.47269 12.8886 1.36135C12.7773 1.25001 12.6263 1.1875 12.4687 1.1875H1.78125C1.62374 1.1875 1.47269 1.25001 1.36135 1.36135C1.25001 1.47269 1.1875 1.62374 1.1875 1.78125V13.6562C1.1875 13.8138 1.25001 13.9648 1.36135 14.0761C1.47269 14.1875 1.62374 14.25 1.78125 14.25H7.71875V11.2812C7.71875 10.2974 8.51618 9.5 9.5 9.5H13.0625ZM12.7916 10.6875H9.5C9.17206 10.6875 8.90625 10.9533 8.90625 11.2812V14.0577L12.7916 10.6875Z" fill="#1F78FF"/>
<path fill-rule="evenodd" clip-rule="evenodd" d="M3.5625 4.15625H10.6875C11.0152 4.15625 11.2812 3.89025 11.2812 3.5625C11.2812 3.23475 11.0152 2.96875 10.6875 2.96875H3.5625C3.23475 2.96875 2.96875 3.23475 2.96875 3.5625C2.96875 3.89025 3.23475 4.15625 3.5625 4.15625Z" fill="#1F78FF"/>
<path fill-rule="evenodd" clip-rule="evenodd" d="M3.5625 6.97661H10.6875C11.0152 6.97661 11.2812 6.71042 11.2812 6.38286C11.2812 6.05511 11.0152 5.78911 10.6875 5.78911H3.5625C3.23475 5.78911 2.96875 6.05511 2.96875 6.38286C2.96875 6.71042 3.23475 6.97661 3.5625 6.97661Z" fill="#1F78FF"/>
</svg>
