<svg width="24" height="24" viewBox="0 0 17 17" fill="none" xmlns="http://www.w3.org/2000/svg">
<path d="M11.148 12.8694C11.6128 12.4896 11.8466 11.9982 11.8466 11.4164C11.8466 10.8427 11.658 10.3752 11.2834 10.0272C10.9461 9.71379 10.3697 9.43754 9.51969 9.18254L8.98047 9.02051V13.5547L9.44266 13.5069C10.1492 13.4352 10.723 13.22 11.148 12.8694ZM9.81984 10.1627C10.3352 10.3539 10.5902 10.5213 10.715 10.6408C10.9142 10.8268 11.0098 11.0818 11.0098 11.4164C11.0098 11.7485 10.885 12.0035 10.6167 12.2239C10.4095 12.3939 10.1439 12.5188 9.81984 12.5985V10.1627Z" fill="#1F78FF"/>
<path d="M8.57168 3.02295L8.11746 3.06279C7.44543 3.12389 6.9009 3.33107 6.50246 3.6817C6.07746 4.05623 5.8623 4.52904 5.8623 5.08686C5.8623 5.6367 6.03496 6.08561 6.37762 6.42029C6.6884 6.72311 7.22496 6.99404 8.02449 7.24904L8.57168 7.42436V3.02295ZM7.73496 6.25826C7.29137 6.07764 7.0709 5.92623 6.96199 5.82264C6.78402 5.64998 6.69902 5.40826 6.69902 5.08951C6.69902 4.77342 6.81324 4.52639 7.05496 4.31123C7.23027 4.15717 7.45606 4.04561 7.73496 3.97389V6.25826Z" fill="#1F78FF"/>
<path d="M5.05467 11.0208L4.73326 10.7419L2.77295 13.0794L3.08107 13.3503C4.45701 14.5509 6.02154 15.2814 7.73482 15.5311V17H9.81998V15.5656C11.0578 15.4408 12.0858 15.0238 12.8773 14.3198C13.7725 13.5256 14.2267 12.4844 14.2267 11.228C14.2267 9.96891 13.8229 8.98609 13.0261 8.30609C12.3089 7.69516 11.257 7.21969 9.81998 6.85844V4.04016C10.5744 4.21281 11.2862 4.53953 11.9476 5.00969L12.2876 5.25406L14.0408 2.77047L13.6901 2.53141C12.4762 1.7 11.1747 1.19797 9.81732 1.03594V0H7.73217V1.00672C6.55545 1.13422 5.56998 1.55125 4.79967 2.2525C3.92576 3.04672 3.48217 4.07734 3.48217 5.32047C3.48217 6.56891 3.87795 7.53312 4.65623 8.18391C5.3442 8.76031 6.35357 9.21719 7.73482 9.57578V12.5189C6.82639 12.2825 5.92857 11.7805 5.05467 11.0208ZM8.25014 8.84531C6.85295 8.51062 5.82232 8.075 5.19279 7.54641C4.60576 7.05234 4.31889 6.32453 4.31889 5.32313C4.31889 4.31109 4.65889 3.51156 5.36279 2.87406C6.07201 2.22859 7.01764 1.87266 8.17311 1.81156L8.56889 1.79031V0.836719H8.98061V1.80094L9.36842 1.83016C10.585 1.91781 11.759 2.30828 12.8614 2.98828L12.0804 4.09328C11.2676 3.58063 10.3858 3.25656 9.45873 3.12375L8.98061 3.05469V7.62078H9.40826C10.8081 7.95281 11.8414 8.39906 12.4815 8.94359C13.0925 9.46422 13.3873 10.2106 13.3873 11.228C13.3873 12.2506 13.0367 13.0555 12.3195 13.693C11.589 14.3411 10.6009 14.697 9.37904 14.7581L8.98061 14.7767V16.1606H8.56889V14.7767L8.19436 14.7395C6.64045 14.5802 5.21139 13.9878 3.94436 12.9784L4.83154 11.9213C5.88076 12.758 6.97248 13.268 8.08811 13.4433L8.57154 13.5203V8.91969L8.25014 8.84531Z" fill="#1F78FF"/>
</svg>
