<svg width="24" height="24" viewBox="0 0 8 8" fill="none" xmlns="http://www.w3.org/2000/svg">
<path d="M5.76819 2.73077C5.89026 2.85284 5.89026 3.05072 5.76819 3.17273L3.67175 5.26923C3.54968 5.39124 3.35187 5.39124 3.2298 5.26923L2.23181 4.27118C2.10974 4.14917 2.10974 3.95129 2.23181 3.82928C2.35382 3.70721 2.5517 3.70721 2.67371 3.82928L3.45074 4.60632L5.32623 2.73077C5.4483 2.60876 5.64618 2.60876 5.76819 2.73077ZM8 4C8 6.211 6.21069 8 4 8C1.789 8 0 6.21069 0 4C0 1.789 1.78931 0 4 0C6.211 0 8 1.78931 8 4ZM7.375 4C7.375 2.13446 5.8653 0.625 4 0.625C2.13446 0.625 0.625 2.1347 0.625 4C0.625 5.86554 2.1347 7.375 4 7.375C5.86554 7.375 7.375 5.8653 7.375 4Z" fill="#00BA00"/>
</svg>
