<svg width="24" height="24" viewBox="0 0 17 17" fill="none" xmlns="http://www.w3.org/2000/svg">
<path d="M8.42492 17C8.33213 17 8.24146 16.9632 8.17417 16.8966C8.09058 16.813 8.05375 16.6926 8.07713 16.5771L8.57792 14.0732C8.59208 14.0038 8.62467 13.9407 8.67496 13.8918L14.1844 8.38242C14.598 7.96875 15.2731 7.96875 15.6868 8.38242L16.6883 9.384C17.1027 9.79838 17.1027 10.472 16.6883 10.8864L11.1789 16.3958C11.13 16.4454 11.067 16.4787 10.9976 16.4928L8.49363 16.9936C8.47096 16.9979 8.44758 17 8.42492 17ZM9.25225 14.3161L8.87683 16.1939L10.7546 15.8185L16.1883 10.3849C16.3264 10.2468 16.3264 10.0222 16.1883 9.88408L15.1867 8.8825C15.0485 8.74438 14.824 8.74438 14.6859 8.8825L9.25225 14.3161Z" fill="#FA5252"/>
<path d="M6.72917 14.875H1.77083C0.794041 14.875 0 14.081 0 13.1042V3.89583C0 2.91904 0.794041 2.125 1.77083 2.125H3.1875C3.383 2.125 3.54167 2.28367 3.54167 2.47917C3.54167 2.67467 3.383 2.83333 3.1875 2.83333H1.77083C1.18504 2.83333 0.708333 3.31004 0.708333 3.89583V13.1042C0.708333 13.69 1.18504 14.1667 1.77083 14.1667H6.72917C6.92467 14.1667 7.08333 14.3253 7.08333 14.5208C7.08333 14.7163 6.92467 14.875 6.72917 14.875Z" fill="#FA5252"/>
<path d="M11.6875 8.5C11.492 8.5 11.3333 8.34133 11.3333 8.14583V3.89583C11.3333 3.31004 10.8566 2.83333 10.2708 2.83333H8.85417C8.65867 2.83333 8.5 2.67467 8.5 2.47917C8.5 2.28367 8.65867 2.125 8.85417 2.125H10.2708C11.2476 2.125 12.0417 2.91904 12.0417 3.89583V8.14583C12.0417 8.34133 11.883 8.5 11.6875 8.5Z" fill="#FA5252"/>
<path d="M8.14583 4.25H3.89583C3.31004 4.25 2.83333 3.77329 2.83333 3.1875V1.77083C2.83333 1.57533 2.992 1.41667 3.1875 1.41667H4.28542C4.44975 0.609166 5.16587 0 6.02083 0C6.87579 0 7.59192 0.609166 7.75625 1.41667H8.85417C9.04967 1.41667 9.20833 1.57533 9.20833 1.77083V3.1875C9.20833 3.77329 8.73162 4.25 8.14583 4.25ZM3.54167 2.125V3.1875C3.54167 3.38229 3.70104 3.54167 3.89583 3.54167H8.14583C8.34062 3.54167 8.5 3.38229 8.5 3.1875V2.125H7.4375C7.242 2.125 7.08333 1.96633 7.08333 1.77083C7.08333 1.18504 6.60662 0.708333 6.02083 0.708333C5.43504 0.708333 4.95833 1.18504 4.95833 1.77083C4.95833 1.96633 4.79967 2.125 4.60417 2.125H3.54167Z" fill="#FA5252"/>
<path d="M9.5625 6.375H2.47917C2.28367 6.375 2.125 6.21633 2.125 6.02083C2.125 5.82533 2.28367 5.66667 2.47917 5.66667H9.5625C9.758 5.66667 9.91667 5.82533 9.91667 6.02083C9.91667 6.21633 9.758 6.375 9.5625 6.375Z" fill="#FA5252"/>
<path d="M9.5625 8.5H2.47917C2.28367 8.5 2.125 8.34133 2.125 8.14583C2.125 7.95033 2.28367 7.79167 2.47917 7.79167H9.5625C9.758 7.79167 9.91667 7.95033 9.91667 8.14583C9.91667 8.34133 9.758 8.5 9.5625 8.5Z" fill="#FA5252"/>
<path d="M9.5625 10.625H2.47917C2.28367 10.625 2.125 10.4663 2.125 10.2708C2.125 10.0753 2.28367 9.91667 2.47917 9.91667H9.5625C9.758 9.91667 9.91667 10.0753 9.91667 10.2708C9.91667 10.4663 9.758 10.625 9.5625 10.625Z" fill="#FA5252"/>
</svg>
