<svg width="70" height="70" viewBox="0 0 70 70" fill="none" xmlns="http://www.w3.org/2000/svg">
<path d="M35 5.83333C18.9292 5.83333 5.83333 18.9292 5.83333 35C5.83333 51.0708 18.9292 64.1667 35 64.1667C51.0708 64.1667 64.1667 51.0708 64.1667 35C64.1667 18.9292 51.0708 5.83333 35 5.83333ZM48.9417 28.2917L32.4042 44.8292C31.9958 45.2375 31.4417 45.4708 30.8583 45.4708C30.275 45.4708 29.7208 45.2375 29.3125 44.8292L21.0583 36.575C20.2125 35.7292 20.2125 34.3292 21.0583 33.4833C21.9042 32.6375 23.3042 32.6375 24.15 33.4833L30.8583 40.1917L45.85 25.2C46.6958 24.3542 48.0958 24.3542 48.9417 25.2C49.7875 26.0458 49.7875 27.4167 48.9417 28.2917Z" fill="#FFFFFF"/>
</svg>
