<svg width="24" height="24" viewBox="0 0 12.8766 11.9517" fill="none" xmlns="http://www.w3.org/2000/svg">
<path d="M12.4078 7.52204C12.2835 7.52204 12.1643 7.57143 12.0764 7.65933C11.9884 7.74724 11.9391 7.86647 11.9391 7.99079V9.59157C11.9391 9.96888 11.7892 10.3307 11.5224 10.5975C11.2556 10.8643 10.8937 11.0142 10.5164 11.0142H2.36016C1.98284 11.0142 1.62099 10.8643 1.35419 10.5975C1.08739 10.3307 0.9375 9.96888 0.9375 9.59157V7.99079C0.9375 7.86647 0.888114 7.74724 0.800206 7.65933C0.712299 7.57143 0.59307 7.52204 0.46875 7.52204C0.34443 7.52204 0.225201 7.57143 0.137294 7.65933C0.049386 7.74724 0 7.86647 0 7.99079V9.59157C0.000620488 10.2173 0.249478 10.8173 0.691959 11.2598C1.13444 11.7023 1.73439 11.9511 2.36016 11.9517H10.5164C11.1422 11.9511 11.7421 11.7023 12.1846 11.2598C12.6271 10.8173 12.8759 10.2173 12.8766 9.59157V7.99079C12.8766 7.86647 12.8272 7.74724 12.7393 7.65933C12.6514 7.57143 12.5321 7.52204 12.4078 7.52204Z" fill="#1F78FF"/>
<path d="M4.09453 3.46735L5.96953 1.59235V8.55329C5.96953 8.67761 6.01892 8.79684 6.10683 8.88475C6.19473 8.97266 6.31396 9.02204 6.43828 9.02204C6.5626 9.02204 6.68183 8.97266 6.76974 8.88475C6.85765 8.79684 6.90703 8.67761 6.90703 8.55329V1.59938L8.78203 3.47438C8.82558 3.51794 8.87729 3.55248 8.93419 3.57605C8.99109 3.59962 9.05208 3.61175 9.11367 3.61175C9.17526 3.61175 9.23625 3.59962 9.29315 3.57605C9.35006 3.55248 9.40176 3.51794 9.44531 3.47438C9.48886 3.43083 9.52341 3.37913 9.54698 3.32223C9.57055 3.26532 9.58268 3.20434 9.58268 3.14274C9.58268 3.08115 9.57055 3.02016 9.54698 2.96326C9.52341 2.90636 9.48886 2.85465 9.44531 2.8111L6.77109 0.136884C6.70594 0.0736801 6.62499 0.0291571 6.53672 0.00797805C6.46085 -0.00598735 6.38275 -0.00157117 6.30894 0.0208567C6.23513 0.0432845 6.16777 0.0830711 6.1125 0.136884L3.43828 2.80407C3.36386 2.89362 3.32543 3.00766 3.33048 3.12398C3.33552 3.24031 3.38368 3.35059 3.46557 3.43336C3.54746 3.51613 3.65723 3.56546 3.77349 3.57174C3.88975 3.57802 4.0042 3.54081 4.09453 3.46735Z" fill="#1F78FF"/>
</svg>
