<svg width="24" height="24" viewBox="0 0 24 24" fill="none" xmlns="http://www.w3.org/2000/svg">
<path d="M15.8451 1.5802C15.8372 1.75427 15.8211 1.9628 15.7806 2.1925C15.6623 2.86378 15.3681 3.69483 14.6693 4.39368C13.9463 5.11665 13.2633 5.40069 12.7816 5.51086C12.6552 5.53976 12.5412 5.55578 12.4427 5.56555C12.449 5.39543 12.4643 5.18533 12.5062 4.95129C12.6182 4.32683 12.8958 3.55116 13.5531 2.89368C14.2387 2.20812 14.9516 1.85916 15.4877 1.68176C15.6184 1.63851 15.7386 1.60544 15.8451 1.5802Z" fill="white" stroke="white"/>
<path d="M12.1245 7.3396C11.0188 7.33204 10.3396 6.37734 8.4566 6.37734C6.76225 6.37734 5.06373 7.47051 4.34151 8.52828C3.62264 9.58111 3 10.7358 3 13.0792C3 15.4226 4.12832 19.4528 6.90285 22.1811C7.378 22.6483 8.00698 22.9995 8.72454 23.0213C10.0151 23.0604 10.8076 22.0943 12.4377 22.0943C14.0679 22.0943 14.5585 23.0213 16.0302 23.0213C16.6994 23.0213 17.4626 22.7165 18.2038 21.9283C19.1547 20.917 20.3347 18.9909 20.9358 17.1434C20.9358 17.1434 17.9258 15.9809 17.9622 12.6301C17.9924 9.8528 20.3509 8.48675 20.3509 8.48675C20.3509 8.48675 18.9735 6.29053 16.0453 6.29053C14.0226 6.30565 13.1169 7.34639 12.1245 7.3396Z" fill="white"/>
</svg>
