<svg preserveAspectRatio="none" width="100%" height="100%" overflow="visible" style="display: block;" viewBox="0 0 137.356 109.152" fill="none" xmlns="http://www.w3.org/2000/svg">
<path id="Ellipse 3151" d="M131.778 59.4203C136.418 61.2024 138.783 66.4433 136.44 70.8268C133.069 77.1339 128.775 82.9225 123.687 87.995C116.469 95.1911 107.815 100.784 98.2895 104.41C88.7639 108.036 78.5808 109.612 68.4047 109.036C58.2287 108.46 48.2884 105.746 39.2325 101.069C30.1765 96.3919 22.2084 89.8581 15.8482 81.8938C9.48793 73.9295 4.87842 64.7136 2.32043 54.8475C-0.237566 44.9814 -0.68655 34.6868 1.00277 24.6355C2.19357 17.5503 4.42798 10.6983 7.61939 4.29834C9.83742 -0.149638 15.4799 -1.2552 19.619 1.4965V1.4965C23.7581 4.2482 24.805 9.81478 22.7711 14.3499C20.8773 18.5727 19.5241 23.0307 18.753 27.6187C17.4831 35.1747 17.8206 42.9135 19.7435 50.3302C21.6664 57.7469 25.1316 64.6748 29.9128 70.6618C34.694 76.6489 40.6839 81.5606 47.4916 85.0763C54.2993 88.5921 61.7718 90.633 69.4214 91.0658C77.0711 91.4986 84.7261 90.3136 91.8869 87.5881C99.0477 84.8626 105.553 80.6579 110.979 75.2483C114.274 71.9636 117.126 68.2794 119.473 64.2907C121.993 60.007 127.138 57.6381 131.778 59.4203V59.4203Z" fill="var(--fill-0, #F0F5FF)"/>
</svg>
